# xmcd
#
# Track frame offsets: 
#        187
#        12362
#        26575
#        44992
#        61517
#        79430
#        95872
#        112210
#        131182
#        148875
#
# Disc length: 2205 seconds
#
# Revision: 4
# Processed by: cddbd v1.5.2PL0 Copyright (c) Steve Scherf et al.
# Submitted via: ExactAudioCopy v0.99pb4
#
DISCID=9b089b0a
DTITLE=Doug Supernaw - Deep Thoughts From A Shallow Mind
DYEAR=1994
DGENRE=Country
TTITLE0=What'll You Do About Me
TTITLE1=Here's To Lyin'
TTITLE2=You Never Call Me By My Name
TTITLE3=State Fair
TTITLE4=Twistin' Tops
TTITLE5=Mesquite Cowboy Mind
TTITLE6=He Went To Paris
TTITLE7=Shut 'er Down
TTITLE8=After The Storm
TTITLE9=Wishin' Her Well
EXTD=
EXTT0=
EXTT1=
EXTT2=
EXTT3=
EXTT4=
EXTT5=
EXTT6=
EXTT7=
EXTT8=
EXTT9=
PLAYORDER=
